<svg xmlns="http://www.w3.org/2000/svg" width="18.25" height="23" viewBox="0 0 18.25 23">
  <metadata><?xpacket begin="﻿" id="W5M0MpCehiHzreSzNTczkc9d"?>
<x:xmpmeta xmlns:x="adobe:ns:meta/" x:xmptk="Adobe XMP Core 5.6-c138 79.159824, 2016/09/14-01:09:01        ">
   <rdf:RDF xmlns:rdf="http://www.w3.org/1999/02/22-rdf-syntax-ns#">
      <rdf:Description rdf:about=""/>
   </rdf:RDF>
</x:xmpmeta>
                                                                                                    
                                                                                                    
                                                                                                    
                                                                                                    
                                                                                                    
                                                                                                    
                                                                                                    
                                                                                                    
                                                                                                    
                                                                                                    
                                                                                                    
                                                                                                    
                                                                                                    
                                                                                                    
                                                                                                    
                                                                                                    
                                                                                                    
                                                                                                    
                                                                                                    
                                                                                                    
                           
<?xpacket end="w"?></metadata>
<defs>
    <style>
      .cls-1 {
        fill: #f78a4d;
        fill-rule: evenodd;
      }
    </style>
  </defs>
  <path id="Shape_1_copy" data-name="Shape 1 copy" class="cls-1" d="M1651.02,9401.39h0.14a4,4,0,0,0,3.13-1.46c1.71-2.07,1.43-5.61,1.39-5.95-0.11-2.54-1.23-3.75-2.15-4.32a4.727,4.727,0,0,0-2.39-.67h-0.07a4.729,4.729,0,0,0-2.39.65c-0.94.57-2.07,1.79-2.18,4.34-0.03.34-.32,3.88,1.39,5.95A3.987,3.987,0,0,0,1651.02,9401.39Zm-3.34-7.29c0-.01.01-0.03,0.01-0.04,0.14-3.41,2.4-3.78,3.37-3.78h0.05c1.2,0.03,3.24.55,3.38,3.78v0.04c0.01,0.03.32,3.27-1.09,4.98a2.849,2.849,0,0,1-2.29,1.02h-0.04a2.849,2.849,0,0,1-2.29-1.02C1647.38,9397.38,1647.68,9394.13,1647.68,9394.1Zm12.53,13.16v-0.13c-0.03-.95-0.09-3.15-2.01-3.85-0.02-.01-0.03-0.01-0.05-0.02a12.373,12.373,0,0,1-3.68-1.8,0.576,0.576,0,0,0-.84.16,0.667,0.667,0,0,0,.15.89,13.24,13.24,0,0,0,4.05,1.99c1.04,0.4,1.15,1.58,1.18,2.67a0.487,0.487,0,0,0,.01.12,10.008,10.008,0,0,1-.09,1.47,16.678,16.678,0,0,1-15.67-.01,8.732,8.732,0,0,1-.09-1.47c0-.04.01-0.07,0.01-0.12,0.03-1.08.14-2.27,1.18-2.67a13.385,13.385,0,0,0,4.05-1.99,0.667,0.667,0,0,0,.15-0.89,0.574,0.574,0,0,0-.84-0.15,12.491,12.491,0,0,1-3.68,1.8c-0.02,0-.03.01-0.05,0.01-1.92.71-1.98,2.91-2.01,3.85v0.14a7.732,7.732,0,0,0,.22,2.15,0.639,0.639,0,0,0,.23.3,17.624,17.624,0,0,0,17.34,0,0.582,0.582,0,0,0,.23-0.3A7.984,7.984,0,0,0,1660.21,9407.26Z" transform="translate(-1641.97 -9389)"/>
</svg>
